<svg enable-background="new 0 0 32 32" height="32" viewBox="0 0 32 32" width="32" xmlns="http://www.w3.org/2000/svg"><path d="m16 32c8.822 0 16-7.178 16-16s-7.178-16-16-16-16 7.178-16 16 7.178 16 16 16zm-8.29-28.49c-.877 2.364-1.313 4.809-1.246 7.287.05 1.798.357 3.599.917 5.355.435 1.36 1.003 2.655 1.691 3.848.11.192.225.381.341.568.095.152.258.236.425.236.091 0 .182-.024.264-.075.234-.146.307-.454.161-.688-.11-.178-.219-.358-.325-.541-.651-1.131-1.191-2.359-1.604-3.651-.531-1.667-.823-3.376-.87-5.079-.071-2.608.416-5.183 1.473-7.714.049-.12.101-.238.153-.356 2.07-1.08 4.417-1.7 6.91-1.7 2.393 0 4.648.577 6.657 1.578-2.48.423-4.809 1.267-6.919 2.563-1.531.939-2.938 2.107-4.179 3.471-.962 1.055-1.799 2.196-2.487 3.388-.111.192-.219.386-.322.581-.13.244-.037.547.207.676.074.04.155.059.234.059.179 0 .352-.097.441-.266.098-.184.199-.367.305-.55.652-1.131 1.447-2.212 2.36-3.215 1.179-1.294 2.513-2.401 3.964-3.293 2.225-1.365 4.698-2.231 7.354-2.572.146-.02.293-.036.44-.053 3.917 2.507 6.588 6.776 6.897 11.686-1.606-1.935-3.501-3.53-5.678-4.709-1.582-.857-3.297-1.491-5.097-1.884-1.62-.355-3.252-.506-4.843-.448-.275.011-.491.242-.481.519.01.27.231.481.5.481h.019c1.496-.056 3.054.088 4.593.425 1.707.373 3.334.975 4.833 1.786 2.295 1.244 4.281 2.953 5.958 5.151.072.093.141.188.211.282-.215 4.934-2.808 9.258-6.677 11.834.877-2.364 1.313-4.809 1.246-7.287-.05-1.798-.357-3.599-.917-5.355-.435-1.36-1.003-2.655-1.691-3.848-.11-.192-.225-.381-.341-.568-.146-.235-.455-.305-.688-.161-.234.146-.307.454-.161.688.11.178.219.358.325.541.651 1.131 1.191 2.359 1.604 3.651.531 1.667.823 3.376.87 5.079.071 2.607-.416 5.183-1.473 7.714-.05.119-.101.238-.153.356-2.071 1.08-4.418 1.7-6.911 1.7-2.393 0-4.648-.577-6.657-1.578 2.479-.423 4.809-1.267 6.919-2.563 1.533-.941 2.939-2.109 4.179-3.471.963-1.056 1.8-2.196 2.487-3.389.111-.192.219-.386.322-.581.13-.244.037-.547-.207-.676-.242-.13-.547-.036-.676.207-.098.184-.199.367-.305.55-.652 1.131-1.447 2.212-2.361 3.215-1.176 1.293-2.51 2.4-3.963 3.293-2.225 1.365-4.698 2.231-7.354 2.572-.146.02-.293.036-.44.053-3.917-2.507-6.588-6.776-6.897-11.686 1.606 1.935 3.501 3.53 5.678 4.709 1.582.857 3.297 1.491 5.097 1.884 1.395.307 2.8.461 4.178.461.223 0 .443-.004.665-.012.275-.011.491-.242.481-.519-.01-.275-.205-.505-.519-.481-1.494.057-3.054-.088-4.593-.425-1.707-.373-3.334-.975-4.833-1.786-2.295-1.244-4.281-2.953-5.958-5.151-.072-.093-.141-.188-.211-.282.216-4.934 2.81-9.258 6.678-11.834z" fill="#828282"/></svg>